<svg t="1577783594806" class="icon" viewBox="0 0 1024 1024" version="1.1" xmlns="http://www.w3.org/2000/svg" p-id="1034" width="128" height="128"><path d="M609.17332689 132.94860971l0 88.16158606L552.70268739 221.11019577c-50.24166003 0-91.1177307 39.70828287-91.1177307 88.51669561L461.58495669 477.22134301l-71.25019989 0 0.56468366-50.32781824 0.00349298-0.64036182c0-30.89689827-25.13596643-56.31345891-56.03053455-56.65809066l-178.18837219-1.9990949c-15.13583616-0.16998741-29.43105024 5.56300174-40.25433771 16.14527943s-16.87645639 24.74476317-17.04644381 39.8805982l-1.94553741 173.48345513-0.00349299 0.64036182c0 30.89456926 25.13480135 56.31112989 56.03053455 56.65809066l178.18953614 1.9990949c31.24385793 0.35045262 56.94799986-24.78318478 57.29845247-56.0270427l0.66481267-59.22885405 0 8.84282141 71.96857003 0L461.58612177 714.37310862c0 48.80957666 40.87490673 88.51785955 91.11773071 88.51785956l56.47063836 0L609.17449083 893.172736c0 31.24618581 25.42005362 56.66624057 56.66624057 56.66624057l178.20117903 0c31.24618581 0 56.66624057-25.42005362 56.66624057-56.66624057l0-250.17789895c0-31.24618581-25.42005362-56.66624057-56.66624057-56.66624057L665.83956633 586.32859648c-31.24618581 0-56.66624057 25.42005362-56.66624057 56.66624057l0 87.12769194L552.70268739 730.12252786c-9.9465728 0-18.34929038-7.21280798-18.34929038-15.74941924l0-404.74621724c0-8.53661126 8.40271758-15.74825529 18.34929038-15.74825529l56.47063837 0L609.17332689 383.61900601c0 31.24618581 25.42005362 56.66624057 56.66624058 56.66624057l178.20117902-1e-8c31.24618581 0 56.66624057-25.42005362 56.66624056-56.66624058l0-250.67039628c0-31.24618581-25.42005362-56.66624057-56.66624056-56.66624057L665.83956633 76.28236914C634.59338051 76.28236914 609.17332689 101.70242389 609.17332689 132.94860971zM170.3819575 581.82160953l1.58460587-141.28021846 145.98862848 1.6369994-1.58460587 141.28021846L170.3819575 581.82160953zM827.9385456 659.0970368L827.9385456 877.07053511 681.94176721 877.07053511l0-217.97349831L827.9385456 659.0970368zM827.93854559 149.05081059L827.9385456 367.51564117 681.94176721 367.51564117l-1e-8-218.46599452L827.93854559 149.04964665z" p-id="1035"></path></svg>