<svg width="270" height="60" xmlns="http://www.w3.org/2000/svg">
 <g>
  <title>Layer 1</title>
  <g stroke="null" id="svg_5">
   <path stroke="null" id="svg_4" fill="#1292D5" d="m34.99799,10.13799l0,4.43024l-3.02059,0c-2.6874,0 -4.87384,1.99539 -4.87384,4.44808l0,8.42185l-3.81114,0l0.0302,-2.52904l0.00019,-0.03218c0,-1.55261 -1.34451,-2.82983 -2.99704,-2.84715l-9.53121,-0.10046c-0.80961,-0.00854 -1.57425,0.27955 -2.15318,0.81132s-0.90271,1.24346 -0.91181,2.00405l-0.10407,8.71778l-0.00019,0.03218c0,1.55249 1.34445,2.82971 2.99705,2.84715l9.53127,0.10046c1.67122,0.01761 3.04612,-1.24539 3.06487,-2.81543l0.03556,-2.97633l0,0.44436l3.84956,0l0,8.26048c0,2.45275 2.18638,4.44814 4.87384,4.44814l3.02059,0l0,4.53678c0,1.57016 1.35971,2.84756 3.03105,2.84756l9.53189,0c1.67134,0 3.03105,-1.27739 3.03105,-2.84756l0,-12.57178c0,-1.57016 -1.35971,-2.84756 -3.03105,-2.84756l-9.53195,0c-1.67134,0 -3.03105,1.27739 -3.03105,2.84756l0,4.37828l-3.02059,0c-0.53204,0 -0.98149,-0.36245 -0.98149,-0.79143l0,-20.33904c0,-0.42898 0.44946,-0.79137 0.98149,-0.79137l3.02059,0l0,4.50957c0,1.57016 1.35971,2.84756 3.03105,2.84756l9.53189,0c1.67134,0 3.03105,-1.27739 3.03105,-2.84756l0,-12.59653c0,-1.57016 -1.35971,-2.84756 -3.03105,-2.84756l-9.53189,0c-1.67134,0 -3.03105,1.27739 -3.03105,2.84756zm-23.47073,22.55647l0.08476,-7.09952l7.80886,0.08226l-0.08476,7.09952l-7.80886,-0.08226zm35.17237,3.88319l0,10.95346l-7.80929,0l0,-10.95346l7.80929,0zm0,-25.63051l0,10.97815l-7.80929,0l0,-10.97821l7.80929,0l0,0.00006z"/>
  </g>
  <text xml:space="preserve" text-anchor="start" font-family="Helvetica, Arial, sans-serif" font-size="24" id="svg_6" y="47.3913" x="56.30433" stroke-width="0" stroke="#939598" fill="#939598">Dependency Graph</text>
 </g>
</svg>
