<?xml version="1.0" standalone="no"?><!DOCTYPE svg PUBLIC "-//W3C//DTD SVG 1.1//EN" "http://www.w3.org/Graphics/SVG/1.1/DTD/svg11.dtd"><svg t="1605066314072" class="icon" viewBox="0 0 1024 1024" version="1.1" xmlns="http://www.w3.org/2000/svg" p-id="4522" xmlns:xlink="http://www.w3.org/1999/xlink" width="200" height="200"><defs><style type="text/css"></style></defs><path d="M676.28 586.52v72.43c12.03-12.3 24.05-24.33 36.22-36.21l-23.92-23.78-12.3-12.44z m0-221.3v72.16c12.03-12.03 24.05-23.92 36.22-36.08-12.17-11.89-24.19-24.05-36.22-36.08z" p-id="4523" fill="#1296db"></path><path d="M512 64C264.58 64 64 264.58 64 512s200.58 448 448 448 448-200.58 448-448S759.42 64 512 64zM353.4 642.09h-50.46c-10.64 0-19.49-8.7-19.49-19.35 0-10.79 8.85-19.49 19.49-19.49h50.46c26.54 0 57.49-34.42 89.43-75.34l5.66 7.47c6.37 8.15 12.44 16.31 18.53 24.32-35.95 45.06-72.72 82.39-113.62 82.39z m383.98-11.2h-0.28l-32.07 32.06-32.06 32.21c-4.57 4.56-11.89 4.56-16.59 0-2.49-2.49-3.6-5.8-3.33-9.13v-43.95h-47.68c-51.55 0-96.47-59.16-141.4-118.33-38.98-51.41-78.09-102.97-110.57-102.97h-50.46c-10.64 0-19.49-8.7-19.49-19.49 0-10.64 8.85-19.49 19.49-19.49h50.46c51.69 0 96.48 59.31 141.54 118.46 38.98 51.42 77.95 102.99 110.43 102.99h47.68v-44.93c0-6.36 5.27-11.61 11.62-11.61 3.17 0 6.36 1.37 8.29 3.58l32.06 32.07 32.07 32.07c4.57 4.43 4.57 11.9 0.29 16.46z m0-221.3h-0.28l-32.07 32.07v0.13l-32.06 32.07c-4.57 4.43-11.89 4.43-16.59 0-2.49-2.49-3.6-5.94-3.33-9.12v-43.96h-47.68c-26.54 0-57.35 34.42-89.43 75.33l-5.53-7.46c-6.36-8.15-12.44-16.31-18.8-24.33 36.22-45.05 72.98-82.52 113.76-82.52h47.68v-44.64c0-6.35 5.27-11.75 11.62-11.75 3.17 0 6.36 1.52 8.29 3.46l32.06 32.2L737.1 393c4.56 4.7 4.56 12.03 0.28 16.59z" p-id="4524" fill="#1296db"></path></svg>